<?xml version="1.0" encoding="utf-8"?>
<!-- Generator: Adobe Illustrator 21.1.0, SVG Export Plug-In . SVG Version: 6.00 Build 0)  -->
<svg version="1.1" id="Layer_1" xmlns="http://www.w3.org/2000/svg" xmlns:xlink="http://www.w3.org/1999/xlink" x="0px" y="0px"
	 viewBox="0 0 841.9 595.3" style="enable-background:new 0 0 841.9 595.3;" xml:space="preserve">
<style type="text/css">
	.Arched_x0020_Green{fill:url(#SVGID_1_);stroke:#FFFFFF;stroke-width:0.25;stroke-miterlimit:1;}
	.st0{fill:#19191A;}
</style>
<linearGradient id="SVGID_1_" gradientUnits="userSpaceOnUse" x1="0" y1="595.2803" x2="0.7071" y2="594.5732">
	<stop  offset="0" style="stop-color:#20AC4B"/>
	<stop  offset="0.9831" style="stop-color:#19361A"/>
</linearGradient>
<g>
	<path class="st0" d="M218.2,351.8c-5.3,0-9.6-2.3-12.7-6.8c-3.2-4.5-4.7-10.7-4.7-18.5c0-9.1,1.5-19.6,4.5-31.4
		c3-11.8,6-19.8,9-24.1c1.2-1.9,3.1-3.4,5.7-4.5c2.6-1.1,5.5-1.7,8.7-1.7c1.8,0,3.2,0.4,4.3,1.3c1.1,0.9,1.6,2.1,1.6,3.7
		c0,0.6-0.7,2.7-2.1,6.3c-0.9,2.4-1.7,4.4-2.3,6l-2,5.6c-8.5,23.3-12.8,38-12.8,44c0,2.3,0.4,4,1.3,5.1c0.9,1.1,2.2,1.7,4,1.7
		c2.6,0,6.4-2.5,11.3-7.5c4.9-5,9.8-11.6,14.6-19.6c0.6-1.1,1.5-2.7,2.6-4.8c1.7-3.3,3-5,3.9-5c1.2,0,2.4,0.6,3.7,1.7
		c1.3,1.2,1.9,2.5,1.9,4.1c0,0.7-1.8,4-5.3,10c-1.7,2.9-3.1,5.2-4.1,6.9c-5.8,10-11.2,17-16,21.2
		C228.7,349.7,223.6,351.8,218.2,351.8z M230,256.8c-3.1,0-5.6-0.8-7.5-2.4c-1.9-1.6-2.9-3.8-2.9-6.6c0-3.7,2-6.8,5.9-9.3
		c3.9-2.5,8-3.7,12.2-3.7c2.7,0,4.7,0.7,6.1,2c1.4,1.3,2,3.2,2,5.7c0,3.6-1.6,6.9-4.9,9.9C237.7,255.3,234,256.8,230,256.8z"/>
	<path class="st0" d="M324.2,339.6c-1.7-1.6-3-3.3-3.8-5.1c-0.8-1.8-1.2-3.8-1.2-6.1c0-4.5,3.8-17.8,11.5-39.8l0.9-2.6
		c-5,8.4-11,19.4-17.9,32.9c-10.2,19.5-17.9,29.3-23.2,29.3c-2.9,0-5.2-0.9-6.9-2.6c-1.7-1.7-2.6-4.1-2.6-7.1c0-3.1,1.9-13.1,5.7-30
		c0.8-3.7,1.5-6.6,2-8.7c-6.1,9.6-12.5,21-19.1,34.4c-6.1,12.5-11.2,18.7-15.1,18.7c-4.8,0-8.3-1.1-10.4-3.2
		c-2.1-2.1-3.2-5.5-3.2-10.1c0-2.9,2.5-12.4,7.4-28.5c3.6-11.6,6.5-21,8.6-28.3c2.1-7.2,3.8-11.7,5.2-13.5c1.4-1.8,3.2-2.6,5.7-2.6
		c2.8,0,5.4,1.2,7.8,3.5c2.4,2.4,3.6,5,3.6,7.9c0,1.6-1.1,3.7-3.4,6.2c-2.3,2.5-3.9,4.7-4.9,6.6c-1.4,2.5-3.6,8.4-6.5,17.8
		c-2.9,9.3-5.8,20-8.7,31.8c13.9-25.5,24.3-43.3,31.4-53.3c7-10,12.4-15,16.1-15c1.9,0,3.5,0.8,4.7,2.3c1.2,1.6,2,3.8,2.4,6.7
		l-2.4,4.5c-2.5,6.9-4.7,14.2-6.6,21.7c-1.9,7.5-3.5,15.4-4.8,23.7c12.7-24.4,22.9-42.5,30.8-54.3c7.8-11.8,13.6-17.6,17.2-17.6
		c1.3,0.1,2.5,0.7,3.5,1.7c1,1,2,2.6,3,4.8c1.2,1.1,2.1,2.2,2.7,3.2c0.6,1.1,0.9,2,0.9,2.9c0,0.9-0.3,2-1,3.3
		c-0.7,1.3-2.1,3.6-4.3,6.9c-4.7,7.2-8.8,15.5-12.1,24.8c-3.4,9.3-5.1,16.1-5.1,20.3c0,2.2,0.4,3.9,1.1,5.1c0.7,1.2,1.8,1.7,3.2,1.7
		c2.3,0,4.7-1.4,7.3-4.3c2.6-2.9,6.5-8.9,11.8-18c1.7-2.8,3.4-6,5.1-9.5c1.7-3.5,2.7-5.3,3.1-5.3c1.2,0,2.7,0.9,4.4,2.6
		c1.8,1.8,2.6,3.3,2.6,4.7c0,1.5-1,4.4-3.1,8.7c-2.1,4.3-4.7,9-8.1,14.2c-4.4,7-8.5,12.2-12.3,15.6c-3.8,3.4-7.3,5.1-10.5,5.1
		c-2,0-4-0.7-6.1-2C328.4,344.5,326.4,342.4,324.2,339.6z"/>
	<path class="st0" d="M382.6,281.1c6.1-7.7,11.9-13.5,17.3-17.2c5.4-3.7,10.5-5.6,15.5-5.6c4.9,0,8.8,2.2,11.5,6.5
		c2.8,4.3,4.1,10.4,4.1,18.2c0,7.8-1.9,17-5.8,27.5c-3.9,10.5-9.1,20.6-15.8,30.2c-3.2,4.7-7.3,8.5-12.3,11.2
		c-5,2.8-10,4.1-15.2,4.1c-3,0-5.9-0.6-8.5-1.8c-2.7-1.2-5.6-3.3-8.8-6.2c-5.5-0.8-9-1.7-10.5-2.6c-1.5-0.9-2.2-2.3-2.2-4.2
		c0-6.6,3.4-22.3,10.3-47c6.9-24.7,15.7-51.5,26.5-80.6c4.2-11.3,7.4-18.8,9.6-22.6c2.2-3.8,4.3-5.7,6.3-5.7c1.2,0,2.5,0.4,3.9,1.3
		c1.4,0.9,2.9,2.1,4.4,3.8c1.5,0.9,2.7,1.7,3.5,2.5c0.8,0.8,1.2,1.4,1.2,1.9c0,1.3-1.1,2.9-3.3,4.8c-2.2,1.9-3.7,3.3-4.4,4.1
		c-2.5,3.1-6.5,12.1-12,27.1C392.6,245.9,387.4,262.6,382.6,281.1z M411.8,271.9c-2.7,0-6.5,1.9-11.2,5.7c-4.8,3.8-9.8,8.9-15,15.3
		c-5.8,7-10.2,14-13,21c-2.9,7-4.3,14.1-4.3,21.3c0,3.6,0.8,6.3,2.5,8.1c1.7,1.8,4.1,2.7,7.5,2.7c3.5,0,6.8-1.2,9.7-3.5
		c3-2.4,6-6.2,9.1-11.4c5.8-9.8,10.5-19.6,13.9-29.3c3.5-9.7,5.2-17.2,5.2-22.6c0-2.1-0.4-3.9-1.3-5.3
		C414.1,272.6,413,271.9,411.8,271.9z"/>
	<path class="st0" d="M453.6,310.5c-0.7,2.6-1.2,5.3-1.6,7.9c-0.4,2.7-0.5,5.5-0.5,8.5c0,5.7,0.8,10.1,2.3,13c1.6,3,3.8,4.4,6.9,4.4
		c5.6,0,12.3-3.5,20-10.6c7.7-7,14.4-15.9,20.1-26.7c0.5-0.9,1.2-2.3,2.1-4.1c2-4.1,3.6-6.2,4.7-6.2c1.1,0,2.2,0.6,3.2,1.7
		c1,1.2,1.5,2.5,1.5,4.1c0,2-1.2,5.3-3.6,10c-2.4,4.6-5.6,9.6-9.6,14.8c-7.4,9.6-14.4,16.4-20.9,20.6c-6.5,4.2-13.4,6.3-20.7,6.3
		c-7.7,0-13.5-2.2-17.4-6.7c-3.9-4.5-5.8-11.2-5.8-20.1c0-9.4,2.2-20.8,6.7-33.9c4.5-13.2,10.2-24.8,17.1-35
		c2.2-3.2,4.6-5.7,7.2-7.4c2.6-1.7,5.1-2.6,7.6-2.6c1.4,0.1,2.7,0.4,4,0.8c1.3,0.5,2.7,1.2,4.4,2.3c1.4,0.4,3.2,0.9,5.4,1.5
		c6,1.6,9,5.2,9,10.9c0,12.7-3.6,24.3-10.7,34.8c-7.1,10.6-14.5,15.8-22.2,15.8c-1.6,0-3.2-0.4-4.7-1.1
		C456.5,313,455,311.9,453.6,310.5z M464.5,305.2c3.3,0,6.6-3.7,9.9-11c3.3-7.3,4.9-14.6,4.9-21.7c0-1.2-0.4-2.3-1.1-3.2
		c-0.8-1-1.6-1.4-2.6-1.4c-2.8,0-6.3,3.6-10.6,10.8c-4.2,7.2-6.3,13-6.3,17.4c0,2.8,0.5,5.1,1.6,6.7
		C461.2,304.4,462.7,305.2,464.5,305.2z"/>
	<path class="st0" d="M514.5,268.4c-1.9-1.2-3.3-2.3-4.1-3.3c-0.8-1-1.2-2.2-1.2-3.5c0-3.2,1.8-6.4,5.4-9.5
		c3.6-3.1,7.6-4.7,11.9-4.7c2.2,0,4,0.6,5.5,1.9c1.5,1.3,2.2,2.8,2.2,4.6c0,0.9-0.1,2.1-0.4,3.5c-0.3,1.4-0.6,3-1.1,4.8l10.3,3
		c0.6-1.1,1.4-2.2,2.5-3.4c1.1-1.2,2.3-2.3,3.8-3.5c0.9-0.3,1.7-0.5,2.4-0.7c0.7-0.2,1.3-0.2,1.7-0.2c2.4,0,4.8,0.9,7.2,2.6
		c2.4,1.7,3.6,3.5,3.6,5.4c0,1.5-0.5,3-1.5,4.4c-1,1.4-2.7,3-5,4.8c-6.4,10.7-11.3,20.8-14.5,30.3c-3.3,9.6-4.9,18.1-4.9,25.6
		c0,2.4,0.4,4.4,1.2,6c0.8,1.6,1.8,2.3,3,2.3c3.1,0,6.7-2.4,10.8-7.2c4.1-4.8,8.3-11.8,12.7-20.8c0.5-1,1.2-2.4,2-4.1
		c2-4.5,3.7-6.8,5.1-6.8c1.3,0,2.6,0.6,3.8,1.7c1.2,1.1,1.8,2.3,1.8,3.6c0,1.5-0.9,4.1-2.6,7.7c-1.7,3.6-4.1,7.8-7.1,12.7
		c-6.3,10.3-11.6,17.2-15.9,20.8c-4.3,3.6-8.9,5.4-13.9,5.4c-5.7,0-10.2-1.8-13.4-5.4c-3.2-3.6-4.8-8.5-4.8-14.7
		c0-6.2,1-13.4,3.1-21.6c2.1-8.2,5.3-17.6,9.6-28.3l-8.3-2.6c-5.2,14.5-9.7,24.8-13.3,31.1c-3.6,6.2-6.9,9.3-10,9.3
		c-1.2,0-2.2-0.4-2.9-1.2c-0.8-0.8-1.1-1.9-1.1-3.3c0-0.4,0.7-2.1,2.1-5.1C506.3,296.4,511.1,282.5,514.5,268.4z"/>
	<path class="st0" d="M605.9,325.7c-5,9.1-10.5,16.2-16.4,21.2c-5.9,5-11.8,7.5-17.5,7.5c-4.6,0-8.4-1.7-11.2-5.2
		c-2.9-3.5-4.3-7.9-4.3-13.3c0-7.1,1.4-14.9,4.1-23.2c2.7-8.3,6.7-17,12.1-25.9c5.1-9.2,10.7-16.5,16.7-21.9c6-5.3,11.5-8,16.7-8
		c2.7,0,5.2,0.7,7.5,2.1c2.3,1.4,4.6,3.7,6.9,6.8c2-0.6,3.6-1,4.8-1.2c1.2-0.2,2.4-0.3,3.5-0.3c3.6,0,6.6,0.8,8.9,2.3
		c2.3,1.6,3.5,3.4,3.5,5.7c0,1.4-1.4,4.9-4.1,10.4c-2.3,4.5-4.1,8.2-5.4,11.2c-3.8,8.4-6.8,16.1-9,23.1c-2.2,6.9-3.3,11.8-3.3,14.6
		c0,1.5,0.2,2.6,0.6,3.2c0.4,0.6,1.1,0.9,2.1,0.9c1.5,0,3.6-1.5,6.4-4.6c2.8-3.1,7.5-9.3,14.1-18.6c1.2-1.7,2.6-3.8,4.2-6.3
		c1.7-2.7,3-4.1,3.8-4.1c1.1,0,2.2,0.8,3.3,2.4c1.1,1.6,1.7,3.1,1.7,4.4c0,1.6-1.6,5.2-4.8,10.8c-3.2,5.6-7.2,11.4-11.9,17.6
		c-3.6,4.7-6.9,8.1-9.9,10c-3,2-6.1,2.9-9.3,2.9c-4.4,0-7.8-1.6-10.3-4.7c-2.4-3.2-3.6-7.7-3.6-13.5c0-1.6,0-2.9,0.1-3.8
		C605.7,327.1,605.8,326.3,605.9,325.7z M615.7,278.1c0-1.4-0.4-2.5-1.2-3.4c-0.8-0.9-1.9-1.3-3.3-1.3c-3.4,0-7.3,2.3-11.8,6.9
		c-4.4,4.6-8.8,11.1-13.3,19.3c-4.2,7.9-7.6,15.5-10.1,22.5c-2.5,7.1-3.8,12.4-3.8,16.1c0,1.3,0.2,2.2,0.6,2.7
		c0.4,0.5,1,0.8,1.8,0.8c2,0,4.8-1.8,8.5-5.3c3.7-3.5,7.4-8.1,11.2-13.9c5.9-8.8,11-17.9,15.1-27.2
		C613.6,286.1,615.7,280.3,615.7,278.1z"/>
</g>
</svg>
